<svg xmlns="http://www.w3.org/2000/svg" xmlns:xlink="http://www.w3.org/1999/xlink" width="1024" zoomAndPan="magnify" viewBox="0 0 768 767.999994" height="1024" preserveAspectRatio="xMidYMid meet" version="1.0"><defs><clipPath id="93e5ff4028"><path d="M 106.253906 105.558594 L 662 105.558594 L 662 662.808594 L 106.253906 662.808594 Z M 106.253906 105.558594 " clip-rule="nonzero"/></clipPath></defs><path fill="#78b546" d="M 448.902344 307.019531 C 448.902344 299.222656 442.578125 292.898438 434.78125 292.898438 L 374.859375 292.898438 C 368.480469 292.898438 362.890625 297.183594 361.214844 303.351562 L 343.140625 370.472656 L 310.453125 194.199219 C 309.238281 187.644531 303.613281 182.835938 296.957031 182.660156 C 290.503906 182.382812 284.414062 186.992188 282.832031 193.46875 L 258.546875 294.121094 L 198.738281 294.121094 C 190.9375 294.121094 184.613281 300.445312 184.613281 308.242188 C 184.613281 316.035156 190.9375 322.367188 198.738281 322.367188 L 269.671875 322.367188 C 276.199219 322.367188 281.859375 317.894531 283.40625 311.550781 L 294.765625 264.464844 L 326.722656 436.78125 C 327.917969 443.261719 333.453125 448.054688 340.035156 448.320312 C 340.238281 448.332031 340.425781 448.332031 340.605469 448.332031 C 346.964844 448.332031 352.578125 444.0625 354.246094 437.878906 L 385.691406 321.144531 L 434.78125 321.144531 C 442.578125 321.144531 448.902344 314.8125 448.902344 307.019531 " fill-opacity="1" fill-rule="nonzero"/><g clip-path="url(#93e5ff4028)"><path fill="#78b546" d="M 153.890625 315.492188 C 153.890625 225.6875 226.953125 152.628906 316.753906 152.628906 C 406.5625 152.628906 479.625 225.6875 479.625 315.492188 C 479.625 405.296875 406.5625 478.359375 316.753906 478.359375 C 226.953125 478.359375 153.890625 405.296875 153.890625 315.492188 Z M 515.203125 450.035156 L 501.886719 463.351562 L 482.523438 443.988281 C 510.105469 408.460938 526.695312 363.960938 526.695312 315.492188 C 526.695312 199.550781 432.699219 105.558594 316.753906 105.558594 C 200.8125 105.558594 106.824219 199.550781 106.824219 315.492188 C 106.824219 431.433594 200.8125 525.425781 316.753906 525.425781 C 363.851562 525.425781 407.183594 509.726562 442.203125 483.539062 L 461.957031 503.289062 L 448.644531 516.597656 L 594.46875 662.433594 L 661.023438 595.875 L 515.203125 450.035156 " fill-opacity="1" fill-rule="nonzero"/></g></svg>