<svg xmlns="http://www.w3.org/2000/svg" xmlns:xlink="http://www.w3.org/1999/xlink" width="1024" zoomAndPan="magnify" viewBox="0 0 768 767.999994" height="1024" preserveAspectRatio="xMidYMid meet" version="1.0"><defs><clipPath id="de19740bcc"><path d="M 81 48 L 687 48 L 687 720.246094 L 81 720.246094 Z M 81 48 " clip-rule="nonzero"/></clipPath></defs><g clip-path="url(#de19740bcc)"><path fill="#78b546" d="M 598.296875 672.953125 L 574.367188 666.960938 L 574.367188 127 C 574.367188 120.832031 569.335938 115.804688 563.167969 115.804688 L 206.839844 115.804688 L 214.148438 71.972656 L 662.726562 114.664062 Z M 551.972656 698.105469 L 104.046875 698.105469 L 104.046875 138.199219 L 551.972656 138.199219 Z M 205.878906 48.65625 C 199.929688 47.957031 194.726562 52.199219 193.804688 57.976562 L 184.140625 115.804688 L 92.847656 115.804688 C 86.679688 115.804688 81.648438 120.832031 81.648438 127 L 81.648438 709.304688 C 81.648438 715.472656 86.679688 720.503906 92.847656 720.503906 L 563.167969 720.503906 C 569.335938 720.503906 574.367188 715.472656 574.367188 709.304688 L 574.367188 690.058594 L 605.25 697.757812 C 606.167969 697.972656 607.042969 698.105469 607.960938 698.105469 C 610.238281 698.105469 612.46875 697.40625 614.347656 696.136719 C 616.972656 694.257812 618.722656 691.371094 619.074219 688.175781 L 686.261719 105.875 C 686.613281 102.898438 685.738281 99.925781 683.855469 97.5625 C 681.976562 95.199219 679.21875 93.757812 676.199219 93.449219 L 205.878906 48.65625 " fill-opacity="1" fill-rule="nonzero"/></g><path fill="#78b546" d="M 148.839844 227.785156 L 126.441406 227.785156 L 126.441406 406.953125 L 529.574219 406.953125 L 529.574219 384.558594 L 148.839844 384.558594 L 148.839844 227.785156 " fill-opacity="1" fill-rule="nonzero"/><path fill="#78b546" d="M 396.027344 293.222656 L 326.566406 246.988281 L 260.820312 312.734375 L 227.226562 279.136719 L 163.316406 343.046875 L 179.152344 358.882812 L 227.226562 310.808594 L 260.820312 344.402344 L 329.453125 275.769531 L 394.367188 319.117188 L 534.605469 249 L 524.542969 228.964844 L 396.027344 293.222656 " fill-opacity="1" fill-rule="nonzero"/><path fill="#78b546" d="M 148.839844 205.386719 C 161.175781 205.386719 171.234375 195.328125 171.234375 182.992188 C 171.234375 170.65625 161.175781 160.59375 148.839844 160.59375 C 136.503906 160.59375 126.441406 170.65625 126.441406 182.992188 C 126.441406 195.328125 136.503906 205.386719 148.839844 205.386719 " fill-opacity="1" fill-rule="nonzero"/><path fill="#78b546" d="M 507.179688 205.386719 C 519.515625 205.386719 529.574219 195.328125 529.574219 182.992188 C 529.574219 170.65625 519.515625 160.59375 507.179688 160.59375 C 494.84375 160.59375 484.78125 170.65625 484.78125 182.992188 C 484.78125 195.328125 494.84375 205.386719 507.179688 205.386719 " fill-opacity="1" fill-rule="nonzero"/><path fill="#78b546" d="M 148.839844 630.917969 C 136.503906 630.917969 126.441406 640.976562 126.441406 653.3125 C 126.441406 665.648438 136.503906 675.710938 148.839844 675.710938 C 161.175781 675.710938 171.234375 665.648438 171.234375 653.3125 C 171.234375 640.976562 161.175781 630.917969 148.839844 630.917969 " fill-opacity="1" fill-rule="nonzero"/><path fill="#78b546" d="M 507.179688 630.917969 C 494.84375 630.917969 484.78125 640.976562 484.78125 653.3125 C 484.78125 665.648438 494.84375 675.710938 507.179688 675.710938 C 519.515625 675.710938 529.574219 665.648438 529.574219 653.3125 C 529.574219 640.976562 519.515625 630.917969 507.179688 630.917969 " fill-opacity="1" fill-rule="nonzero"/><path fill="#78b546" d="M 126.441406 451.746094 L 260.820312 451.746094 L 260.820312 429.351562 L 126.441406 429.351562 L 126.441406 451.746094 " fill-opacity="1" fill-rule="nonzero"/><path fill="#78b546" d="M 328.007812 675.710938 L 462.386719 675.710938 L 462.386719 653.3125 L 328.007812 653.3125 L 328.007812 675.710938 " fill-opacity="1" fill-rule="nonzero"/><path fill="#78b546" d="M 126.441406 496.539062 L 260.820312 496.539062 L 260.820312 474.144531 L 126.441406 474.144531 L 126.441406 496.539062 " fill-opacity="1" fill-rule="nonzero"/><path fill="#78b546" d="M 126.441406 541.332031 L 260.820312 541.332031 L 260.820312 518.9375 L 126.441406 518.9375 L 126.441406 541.332031 " fill-opacity="1" fill-rule="nonzero"/><path fill="#78b546" d="M 148.839844 563.726562 L 126.441406 563.726562 L 126.441406 586.125 L 148.839844 586.125 L 148.839844 563.726562 " fill-opacity="1" fill-rule="nonzero"/><path fill="#78b546" d="M 171.234375 586.125 L 193.632812 586.125 L 193.632812 563.726562 L 171.234375 563.726562 L 171.234375 586.125 " fill-opacity="1" fill-rule="nonzero"/><path fill="#78b546" d="M 238.425781 563.726562 L 216.027344 563.726562 L 216.027344 586.125 L 238.425781 586.125 L 238.425781 563.726562 " fill-opacity="1" fill-rule="nonzero"/><path fill="#78b546" d="M 305.613281 530.132812 C 305.613281 490.722656 334.875 458.003906 372.800781 452.535156 L 372.800781 541.332031 L 461.597656 541.332031 C 456.132812 579.257812 423.410156 608.519531 384 608.519531 C 340.78125 608.519531 305.613281 573.351562 305.613281 530.132812 Z M 484.78125 530.132812 L 484.78125 518.9375 L 395.199219 518.9375 L 395.199219 429.351562 L 384 429.351562 C 328.402344 429.351562 283.214844 474.535156 283.214844 530.132812 C 283.214844 585.730469 328.402344 630.917969 384 630.917969 C 439.597656 630.917969 484.78125 585.730469 484.78125 530.132812 " fill-opacity="1" fill-rule="nonzero"/><path fill="#78b546" d="M 407.183594 492.382812 L 428.003906 500.695312 L 447.558594 451.746094 L 529.574219 451.746094 L 529.574219 429.351562 L 432.421875 429.351562 L 407.183594 492.382812 " fill-opacity="1" fill-rule="nonzero"/><path fill="#78b546" d="M 283.214844 675.710938 L 305.613281 675.710938 L 305.613281 653.3125 L 283.214844 653.3125 L 283.214844 675.710938 " fill-opacity="1" fill-rule="nonzero"/><path fill="#78b546" d="M 238.425781 675.710938 L 260.820312 675.710938 L 260.820312 653.3125 L 238.425781 653.3125 L 238.425781 675.710938 " fill-opacity="1" fill-rule="nonzero"/></svg>