<svg xmlns="http://www.w3.org/2000/svg" xmlns:xlink="http://www.w3.org/1999/xlink" width="1024" zoomAndPan="magnify" viewBox="0 0 768 767.999994" height="1024" preserveAspectRatio="xMidYMid meet" version="1.0"><defs><clipPath id="548c19881e"><path d="M 45 176 L 724 176 L 724 749.660156 L 45 749.660156 Z M 45 176 " clip-rule="nonzero"/></clipPath><clipPath id="cca8a9f011"><path d="M 420 18.410156 L 444 18.410156 L 444 105 L 420 105 Z M 420 18.410156 " clip-rule="nonzero"/></clipPath></defs><g clip-path="url(#548c19881e)"><path fill="#78b546" d="M 719.476562 562.070312 L 623.46875 481.003906 C 626.582031 475.203125 628.550781 468.789062 629.117188 462.019531 C 630.214844 448.976562 626.179688 436.296875 617.773438 426.367188 C 611.617188 419.042969 603.609375 413.808594 594.621094 411.109375 C 607.960938 393.277344 607.808594 367.933594 592.878906 350.195312 C 586.390625 342.496094 577.851562 337.105469 568.277344 334.546875 C 578.949219 317.070312 577.863281 293.96875 563.9375 277.421875 C 556.226562 268.292969 545.609375 262.410156 533.816406 260.664062 C 539.21875 244.910156 536.484375 226.769531 524.996094 213.148438 C 516.613281 203.183594 504.785156 197.101562 491.730469 195.992188 C 478.601562 194.847656 465.984375 198.902344 456.019531 207.300781 L 454.203125 208.832031 L 399.175781 183.160156 C 370.378906 168.207031 345.164062 179.964844 332.972656 198.207031 C 328.914062 204.269531 326.425781 210.816406 325.128906 217.417969 L 313.136719 207.289062 C 292.484375 189.90625 261.550781 192.558594 244.15625 213.148438 C 232.671875 226.769531 229.933594 244.910156 235.347656 260.664062 C 223.554688 262.410156 212.964844 268.28125 205.230469 277.433594 C 196.832031 287.398438 192.8125 300.066406 193.90625 313.109375 C 194.566406 320.84375 196.960938 328.132812 200.878906 334.546875 C 191.597656 337.046875 182.941406 342.296875 176.277344 350.183594 C 161.335938 367.921875 161.195312 393.265625 174.542969 411.097656 C 165.804688 413.75 157.703125 418.84375 151.394531 426.332031 C 138.101562 442.066406 136.570312 463.8125 145.746094 480.992188 L 49.691406 562.058594 C 44.703125 566.257812 44.078125 573.699219 48.273438 578.675781 C 50.609375 581.433594 53.9375 582.863281 57.308594 582.863281 C 59.996094 582.863281 62.6875 581.953125 64.902344 580.089844 L 161.289062 498.753906 L 199.945312 531.351562 C 208.824219 538.839844 219.851562 542.847656 231.375 542.847656 C 232.777344 542.847656 234.191406 542.777344 235.609375 542.660156 C 248.640625 541.550781 260.457031 535.464844 268.816406 525.523438 C 277.238281 515.582031 281.269531 502.929688 280.171875 489.875 C 279.59375 482.964844 277.542969 476.464844 274.347656 470.570312 C 284.089844 468.210938 293.226562 462.960938 300.164062 454.742188 C 309.714844 443.410156 313.003906 429 310.800781 415.402344 C 310.8125 415.402344 310.824219 415.402344 310.835938 415.402344 C 324.585938 415.402344 338.136719 409.691406 347.417969 398.738281 C 356.085938 390.023438 360.566406 378.160156 360.011719 365.351562 C 359.988281 364.925781 359.847656 364.527344 359.824219 364.113281 C 361.757812 364.347656 363.667969 364.667969 365.636719 364.667969 C 367.039062 364.667969 368.46875 364.609375 369.882812 364.476562 C 382.9375 363.371094 394.742188 357.273438 402.433594 348.074219 C 411.148438 339.40625 415.652344 327.578125 415.121094 314.757812 C 414.636719 303.109375 409.921875 292.152344 402.253906 283.542969 L 471.207031 225.320312 C 476.363281 220.992188 482.894531 218.859375 489.710938 219.496094 C 496.492188 220.0625 502.613281 223.210938 506.941406 228.351562 C 515.941406 239.023438 514.570312 255.074219 503.898438 264.085938 L 494.984375 271.632812 C 494.972656 271.644531 494.972656 271.644531 494.972656 271.644531 C 490.007812 275.84375 489.382812 283.285156 493.605469 288.261719 C 497.789062 293.226562 505.230469 293.839844 510.207031 289.640625 L 510.265625 289.582031 C 515.386719 285.300781 521.953125 283.273438 528.628906 283.789062 C 535.421875 284.355469 541.566406 287.492188 545.894531 292.636719 C 554.902344 303.332031 553.535156 319.359375 542.851562 328.367188 L 523.933594 344.371094 C 523.933594 344.371094 523.921875 344.382812 523.910156 344.382812 C 518.945312 348.59375 518.320312 356.035156 522.53125 361 C 526.730469 365.976562 534.171875 366.601562 539.148438 362.390625 L 539.160156 362.390625 C 544.300781 358.027344 551.035156 356.011719 557.617188 356.53125 C 564.386719 357.109375 570.496094 360.246094 574.824219 365.386719 C 583.820312 376.070312 582.453125 392.109375 571.792969 401.121094 L 548.84375 420.484375 L 548.832031 420.496094 C 543.855469 424.695312 543.21875 432.136719 547.414062 437.113281 C 551.613281 442.089844 559.042969 442.738281 564.03125 438.527344 L 564.066406 438.503906 C 569.207031 434.175781 575.695312 432.160156 582.511719 432.675781 C 589.28125 433.253906 595.390625 436.390625 599.730469 441.558594 C 604.082031 446.710938 606.15625 453.269531 605.589844 460.027344 C 605.011719 466.792969 601.875 472.925781 596.734375 477.265625 L 489.546875 567.742188 C 445.804688 604.667969 409.730469 600.761719 355.542969 589.984375 C 352.003906 589.242188 348.382812 590.21875 345.625 592.542969 L 184.238281 728.777344 C 179.261719 732.964844 178.636719 740.40625 182.84375 745.394531 C 185.167969 748.152344 188.496094 749.578125 191.855469 749.578125 C 194.542969 749.578125 197.234375 748.671875 199.460938 746.796875 L 356.523438 614.207031 C 378.90625 618.523438 399.390625 621.53125 419.179688 620.800781 L 569.796875 746.832031 C 572.027344 748.683594 574.703125 749.578125 577.371094 749.578125 C 580.742188 749.578125 584.089844 748.140625 586.425781 745.359375 C 590.601562 740.359375 589.953125 732.929688 584.953125 728.753906 L 450.324219 616.09375 C 468.191406 611.035156 486.019531 601.601562 504.761719 585.785156 L 607.925781 498.730469 L 704.261719 580.078125 C 706.480469 581.953125 709.179688 582.863281 711.871094 582.863281 C 715.230469 582.863281 718.554688 581.445312 720.890625 578.6875 C 725.078125 573.710938 724.453125 566.269531 719.476562 562.070312 Z M 353.820312 241.617188 C 344.894531 234.082031 346.519531 220.378906 352.59375 211.308594 C 355.589844 206.828125 367.027344 193.066406 388.777344 204.304688 L 434.367188 225.582031 L 384.589844 267.609375 L 353.925781 241.738281 L 353.84375 241.664062 C 353.832031 241.652344 353.84375 241.628906 353.820312 241.617188 Z M 250.820312 510.289062 C 246.492188 515.441406 240.382812 518.578125 233.625 519.144531 C 226.796875 519.757812 220.289062 517.632812 215.160156 513.304688 L 172.433594 477.289062 C 161.757812 468.234375 160.402344 452.207031 169.425781 441.546875 C 178.363281 430.933594 194.203125 429.527344 204.898438 438.375 L 247.847656 474.589844 C 252.992188 478.917969 256.128906 485.039062 256.695312 491.820312 C 257.257812 498.601562 255.171875 505.144531 250.820312 510.289062 Z M 282.15625 439.515625 C 273.144531 450.191406 257.128906 451.558594 246.445312 442.570312 L 220.394531 420.601562 C 220.359375 420.578125 220.347656 420.53125 220.3125 420.496094 L 220.300781 420.484375 L 197.363281 401.132812 C 186.691406 392.097656 185.320312 376.070312 194.308594 365.398438 C 198.660156 360.246094 204.792969 357.109375 211.5625 356.53125 C 218.34375 355.976562 224.898438 358.039062 230.042969 362.390625 L 230.054688 362.402344 C 230.078125 362.425781 230.125 362.425781 230.148438 362.449219 L 279.101562 403.808594 C 289.785156 412.816406 291.140625 428.855469 282.15625 439.515625 Z M 330.082031 382.769531 C 321.046875 393.441406 305.03125 394.808594 294.335938 385.789062 L 245.113281 344.21875 C 245.101562 344.207031 245.078125 344.207031 245.066406 344.195312 L 226.28125 328.34375 C 221.136719 324.015625 218 317.894531 217.421875 311.113281 C 216.84375 304.347656 218.933594 297.765625 223.261719 292.636719 C 227.601562 287.492188 233.722656 284.355469 240.488281 283.789062 C 247.140625 283.164062 253.757812 285.265625 258.886719 289.546875 L 258.992188 289.640625 L 327.027344 347.046875 C 332.640625 351.789062 336.167969 359.007812 336.484375 366.339844 C 336.734375 372.496094 334.703125 378.085938 330.082031 382.769531 Z M 385.132812 332.105469 C 380.804688 337.25 374.695312 340.386719 367.925781 340.964844 C 361.121094 341.589844 354.597656 339.464844 349.480469 335.148438 C 348.902344 334.664062 348.382812 334.652344 347.902344 334.925781 C 346.132812 332.859375 344.328125 330.796875 342.238281 329.027344 L 274.195312 271.609375 C 274.148438 271.5625 274.101562 271.539062 274.054688 271.492188 L 265.242188 264.074219 C 254.570312 255.050781 253.203125 239.011719 262.1875 228.351562 C 271.210938 217.691406 287.25 216.3125 297.921875 225.296875 L 314.042969 238.917969 C 314.054688 238.917969 314.054688 238.929688 314.066406 238.941406 L 339.679688 260.570312 L 347.605469 267.257812 L 347.617188 267.257812 L 382.148438 296.421875 C 387.761719 301.148438 391.277344 308.367188 391.59375 315.726562 C 391.839844 321.847656 389.789062 327.390625 385.132812 332.105469 Z M 385.132812 332.105469 " fill-opacity="1" fill-rule="nonzero"/></g><g clip-path="url(#cca8a9f011)"><path fill="#78b546" d="M 431.808594 104.03125 C 438.328125 104.03125 443.601562 98.757812 443.601562 92.234375 L 443.601562 30.203125 C 443.601562 23.683594 438.328125 18.410156 431.808594 18.410156 C 425.285156 18.410156 420.015625 23.683594 420.015625 30.203125 L 420.015625 92.234375 C 420.015625 98.757812 425.285156 104.03125 431.808594 104.03125 Z M 431.808594 104.03125 " fill-opacity="1" fill-rule="nonzero"/></g><path fill="#78b546" d="M 588.054688 137.933594 C 591.6875 137.933594 595.257812 136.257812 597.582031 133.121094 L 634.269531 83.121094 C 638.117188 77.871094 636.984375 70.488281 631.734375 66.632812 C 626.453125 62.765625 619.09375 63.933594 615.25 69.167969 L 578.5625 119.171875 C 574.714844 124.417969 575.847656 131.800781 581.097656 135.660156 C 583.195312 137.191406 585.636719 137.933594 588.054688 137.933594 Z M 588.054688 137.933594 " fill-opacity="1" fill-rule="nonzero"/><path fill="#78b546" d="M 266.046875 133.121094 C 268.34375 136.269531 271.929688 137.933594 275.5625 137.933594 C 277.980469 137.933594 280.421875 137.191406 282.53125 135.644531 C 287.78125 131.800781 288.910156 124.417969 285.054688 119.171875 L 248.34375 69.167969 C 244.5 63.933594 237.128906 62.789062 231.871094 66.644531 C 226.621094 70.488281 225.488281 77.871094 229.34375 83.121094 Z M 266.046875 133.121094 " fill-opacity="1" fill-rule="nonzero"/></svg>